<?xml version="1.0" standalone="no"?>
<!DOCTYPE svg PUBLIC "-//W3C//DTD SVG 20010904//EN"
 "http://www.w3.org/TR/2001/REC-SVG-20010904/DTD/svg10.dtd">
<svg version="1.0" xmlns="http://www.w3.org/2000/svg"
 width="618.000000pt" height="622.000000pt" viewBox="0 0 618.000000 622.000000"
 preserveAspectRatio="xMidYMid meet">

<g transform="translate(0.000000,622.000000) scale(0.100000,-0.100000)"
fill="#000000" stroke="none">
<path d="M1290 6208 c-168 -17 -246 -34 -415 -91 -33 -11 -71 -26 -85 -32 -14
-7 -36 -18 -50 -24 -159 -72 -369 -245 -478 -393 -34 -46 -70 -94 -80 -108
-25 -33 -106 -221 -125 -290 -56 -204 -52 -36 -52 -2165 0 -2109 -3 -1951 46
-2140 22 -81 93 -232 148 -313 31 -46 66 -101 79 -123 13 -22 32 -44 43 -49
10 -6 26 -24 34 -40 8 -16 29 -37 47 -46 17 -9 42 -29 55 -45 14 -16 30 -29
36 -29 6 0 36 -20 66 -43 103 -81 341 -194 439 -209 37 -6 76 -15 87 -21 10
-5 46 -13 80 -17 33 -5 87 -13 120 -18 41 -8 638 -10 1870 -8 l1810 2 79 22
c91 25 130 36 201 53 28 7 62 21 77 31 15 10 51 27 80 37 74 26 193 91 234
129 19 18 39 32 44 32 12 0 187 178 223 227 51 68 97 146 147 248 44 90 76
194 120 393 13 57 13 3693 1 3776 -6 33 -15 96 -21 140 -14 93 -57 242 -92
317 -14 30 -36 77 -48 104 -26 59 -80 145 -91 145 -4 0 -11 10 -14 21 -8 24
-170 189 -186 189 -5 0 -14 9 -21 20 -7 11 -18 20 -25 20 -7 0 -13 5 -13 10 0
6 -6 10 -13 10 -7 0 -23 11 -35 25 -12 14 -28 25 -35 25 -7 0 -23 11 -34 24
-12 13 -35 27 -52 31 -17 4 -31 11 -31 15 0 5 -16 12 -35 16 -19 3 -35 10 -35
14 0 22 -298 107 -425 120 -116 12 -3556 19 -3675 8z m3685 -38 c102 -14 240
-51 349 -94 299 -118 567 -367 689 -641 71 -160 129 -408 126 -541 -2 -50 -3
-45 -9 33 -20 245 -106 495 -231 672 -162 231 -432 421 -719 505 -63 18 -137
36 -163 40 -27 4 -59 10 -70 13 -38 10 -3680 16 -3674 6 3 -5 -9 -7 -28 -5
-42 5 -221 -39 -341 -84 -282 -105 -542 -325 -695 -589 -36 -62 -89 -187 -110
-263 -7 -23 -14 -40 -17 -37 -8 7 47 174 83 252 83 179 246 373 415 492 182
128 450 228 670 249 127 12 3634 4 3725 -8z m-802 -197 c-7 -2 -19 -2 -25 0
-7 3 -2 5 12 5 14 0 19 -2 13 -5z m-2916 -9 c-3 -3 -12 -4 -19 -1 -8 3 -5 6 6
6 11 1 17 -2 13 -5z m3729 -29 c149 -26 276 -75 408 -155 278 -170 453 -426
510 -745 11 -65 14 -252 15 -992 1 -609 -2 -913 -9 -913 -7 0 -11 159 -12 463
0 254 -4 440 -7 412 l-6 -50 -82 -3 c-75 -3 -83 -5 -83 -22 0 -19 -9 -20 -280
-20 -231 0 -280 2 -280 14 0 9 18 16 53 20 74 10 45 21 -95 36 l-118 13 0 79
c0 71 -2 78 -20 78 -13 0 -20 7 -20 20 0 25 -35 27 -49 3 -6 -10 -11 -13 -11
-6 0 6 5 15 10 18 14 9 12 45 -2 44 -18 -1 -56 -17 -43 -18 6 -1 12 -9 13 -18
16 -125 19 -115 -42 -180 -30 -33 -52 -63 -48 -67 4 -4 2 -6 -5 -4 -6 2 -240
-222 -520 -497 -279 -275 -578 -567 -663 -649 -85 -82 -20 -15 145 149 165
164 486 483 713 708 231 230 415 421 418 434 16 61 -31 143 -91 163 -29 10
-35 16 -34 38 1 22 2 23 6 6 2 -12 13 -24 24 -27 29 -8 21 35 -8 48 -17 7 -23
18 -23 40 0 40 -37 101 -83 139 -31 25 -49 31 -101 34 -55 4 -70 1 -108 -22
-39 -23 -319 -296 -303 -296 3 0 67 62 143 138 143 145 183 172 251 172 129 0
224 -141 180 -268 -13 -39 -1993 -2008 -2051 -2039 -52 -29 -103 -29 -150 0
-20 12 -218 200 -440 417 -221 217 -412 405 -425 416 -32 32 -47 97 -34 150
14 56 13 66 -4 29 -8 -16 -14 -23 -14 -15 -1 21 16 45 30 45 7 0 14 6 17 14 3
9 0 11 -9 6 -8 -5 -5 1 5 13 11 12 21 20 24 18 2 -3 25 7 50 20 38 20 60 25
112 23 36 -1 75 -8 88 -16 13 -8 26 -12 29 -10 3 3 -10 13 -29 23 -35 19 -114
24 -163 11 -21 -5 -26 -5 -15 2 49 33 159 19 207 -25 16 -14 21 -22 13 -19 -8
4 129 -137 305 -314 176 -176 326 -321 334 -321 20 0 261 251 254 264 -4 6 -2
8 2 3 11 -10 76 53 68 66 -3 6 -1 7 5 3 14 -8 74 52 66 66 -4 6 -3 8 3 5 12
-8 109 81 105 96 -2 7 0 9 4 4 10 -10 105 84 97 96 -3 6 -2 7 4 4 5 -3 160
146 344 331 184 185 313 317 287 292 -43 -39 -48 -42 -48 -22 0 12 4 22 9 22
5 0 12 15 15 33 6 29 8 30 18 13 10 -17 12 -16 24 14 8 18 14 48 14 66 l0 34
-80 0 c-73 0 -80 2 -80 20 0 18 7 20 80 20 73 0 80 2 80 20 0 18 -7 20 -80 20
-73 0 -80 2 -80 20 0 19 7 20 100 20 93 0 100 1 100 20 0 19 -7 20 -100 20
l-100 0 0 40 0 40 -40 0 -40 0 0 40 0 40 -120 0 c-113 0 -120 -1 -120 -20 0
-19 -7 -20 -240 -20 -230 0 -240 1 -240 19 0 11 6 22 13 24 16 6 -189 6 -225
0 -19 -3 -28 -11 -28 -24 0 -16 -7 -19 -40 -19 -34 0 -40 -3 -40 -22 0 -21 -2
-21 -120 -15 -66 4 -174 4 -240 0 -108 -5 -120 -8 -120 -25 0 -16 9 -18 80
-18 l80 0 0 -40 0 -40 152 0 c83 0 148 -3 145 -7 -4 -3 1 -16 10 -27 16 -19
15 -19 -7 1 -24 21 -36 22 -207 25 -99 2 -179 0 -176 -4 4 -8 -13 -12 -32 -8
-5 1 -7 -2 -3 -5 4 -4 1 -17 -7 -29 -11 -15 -15 -57 -17 -171 l-2 -150 -5 150
c-5 113 -3 153 7 163 14 15 6 36 -10 26 -6 -4 -46 -6 -89 -5 l-79 2 0 -140 c0
-77 -3 -142 -7 -144 -5 -3 -8 123 -8 279 l0 284 955 2 c525 1 976 2 1003 2 47
1 56 9 79 64 2 4 7 5 13 4 5 -2 7 0 3 4 -5 4 41 57 100 118 116 119 147 159
137 176 -4 6 -63 9 -163 8 l-157 -2 159 -6 158 -5 -143 -140 c-79 -77 -160
-148 -181 -158 -33 -16 -109 -17 -988 -17 -637 0 -958 -3 -971 -10 -18 -10
-19 -24 -19 -310 l0 -300 -170 -172 -170 -173 3 513 c1 281 -1 512 -5 512 -5
0 -8 -195 -9 -432 0 -238 -2 -428 -4 -423 -2 6 -6 31 -10 58 -5 38 -10 47 -26
47 -12 0 -19 7 -19 20 0 18 -7 20 -60 20 -53 0 -60 2 -60 20 0 13 -7 20 -20
20 -13 0 -20 7 -20 20 0 19 -7 20 -180 20 -173 0 -180 -1 -180 -20 0 -22 -3
-23 -49 -14 -17 4 -31 13 -31 20 0 11 -37 14 -200 14 -193 0 -200 1 -200 20 0
18 -7 20 -80 20 -73 0 -80 2 -80 20 0 13 -7 20 -20 20 -18 0 -20 7 -22 63 -2
60 -2 59 -8 -23 -6 -83 -6 -84 -9 -25 -2 33 -7 146 -10 250 -7 171 -8 149 -11
-220 -2 -225 -3 -482 -2 -570 1 -88 -2 -198 -7 -245 -5 -57 -9 167 -12 670 -6
1122 -7 1071 26 1200 108 428 421 732 860 835 l100 24 1826 0 c1601 1 1837 -1
1915 -14z m-4913 -815 c-3 -11 -7 -20 -9 -20 -2 0 -4 9 -4 20 0 11 4 20 9 20
5 0 7 -9 4 -20z m-26 -237 c-2 -21 -4 -6 -4 32 0 39 2 55 4 38 2 -18 2 -50 0
-70z m3911 -412 c-7 -11 -15 -18 -19 -15 -4 2 -10 0 -14 -6 -3 -5 -14 -10 -23
-10 -10 0 0 11 23 25 49 30 48 30 33 6z m-1038 -288 c-96 -2 -178 -7 -182 -11
-4 -4 78 -6 181 -4 244 4 228 20 221 -217 -4 -138 -8 -174 -20 -181 -8 -5 -96
-10 -196 -10 -164 0 -182 2 -198 19 -15 16 -16 39 -13 192 5 196 6 201 21 211
6 4 90 7 186 6 l175 -2 -175 -3z m234 -32 c-2 -3 -12 3 -22 13 -16 17 -16 18
5 5 12 -7 20 -15 17 -18z m-587 -3 c22 -21 23 -27 23 -184 0 -217 15 -204
-221 -204 -148 0 -180 3 -193 16 -13 13 -16 44 -16 182 0 225 -13 212 214 212
160 0 171 -1 193 -22z m40 -90 c-2 -13 -4 -5 -4 17 -1 22 1 32 4 23 2 -10 2
-28 0 -40z m560 -180 c-1 -46 -3 -11 -3 77 0 88 2 125 3 83 2 -42 2 -114 0
-160z m1753 192 c0 -5 -5 -10 -11 -10 -5 0 -7 5 -4 10 3 6 8 10 11 10 2 0 4
-4 4 -10z m-1220 -305 c-67 -67 -112 -105 -125 -104 -16 0 -14 3 8 11 15 5 27
14 27 19 0 17 119 139 136 139 6 0 14 9 17 20 3 11 13 20 23 20 13 0 -16 -35
-86 -105z m-1744 48 c-3 -4 -6 -2 -6 4 0 6 -30 -19 -66 -56 l-67 -66 62 69
c33 38 61 74 61 80 0 6 5 3 11 -7 6 -10 8 -21 5 -24z m194 -26 c0 -12 7 -34
16 -47 l16 -25 -20 22 c-11 12 -21 20 -23 18 -2 -2 -4 10 -4 26 0 16 3 29 8
29 4 0 7 -10 7 -23z m450 -31 c0 -2 -8 -10 -17 -17 -16 -13 -17 -12 -4 4 13
16 21 21 21 13z m115 -16 c10 -11 16 -20 13 -20 -3 0 -13 9 -23 20 -10 11 -16
20 -13 20 3 0 13 -9 23 -20z m435 6 c0 -2 -8 -10 -17 -17 -16 -13 -17 -12 -4
4 13 16 21 21 21 13z m-1330 -59 c0 -2 -17 -19 -37 -38 l-38 -34 34 38 c33 34
41 42 41 34z m1653 -147 c-58 -61 -108 -108 -110 -106 -3 3 26 36 63 74 38 38
83 85 101 105 18 21 37 37 42 37 5 0 -38 -50 -96 -110z m-1753 47 c0 -1 -24
-25 -52 -52 l-53 -50 50 53 c46 48 55 57 55 49z m2869 -354 c-4 -148 -7 -545
-8 -883 -1 -656 -3 -677 -51 -756 -13 -19 -44 -53 -71 -74 -95 -75 -1 -71
-1385 -68 l-1239 3 -63 34 c-74 40 -115 84 -151 161 l-26 55 1 392 c0 216 4
396 8 400 3 4 78 -65 166 -152 l160 -159 2 -206 3 -205 1145 -3 c1068 -2 1146
-1 1158 15 9 13 12 168 12 692 l0 676 169 173 c92 94 170 172 172 172 2 0 1
-120 -2 -267z m18 -265 c-1 -95 -3 -20 -3 167 0 187 2 265 3 173 2 -92 2 -245
0 -340z m-1257 453 c0 -5 -7 -12 -16 -15 -14 -5 -15 -4 -4 9 14 17 20 19 20 6z
m-30 -34 c0 -2 -10 -12 -22 -23 l-23 -19 19 23 c18 21 26 27 26 19z m-1590
-42 c0 -2 -10 -9 -22 -15 -22 -11 -22 -10 -4 4 21 17 26 19 26 11z m1526 -23
c-18 -16 -18 -16 -6 6 6 13 14 21 18 18 3 -4 -2 -14 -12 -24z m-1081 -192 c82
-82 147 -150 145 -150 -3 0 -73 68 -155 150 -82 83 -147 150 -145 150 3 0 73
-67 155 -150z m1011 128 c4 -7 3 -8 -4 -4 -7 4 -12 2 -12 -5 0 -7 -3 -10 -6
-6 -6 5 3 27 11 27 2 0 7 -5 11 -12z m-1626 -131 c-89 -36 -133 -127 -94 -193
10 -17 161 -169 334 -337 173 -168 389 -381 480 -473 91 -93 30 -36 -135 127
-165 162 -389 380 -497 485 -129 124 -199 198 -203 217 -11 41 3 93 32 128 27
31 94 69 123 68 8 0 -10 -10 -40 -22z m-1293 -174 c-2 -32 -3 -6 -3 57 0 63 1
89 3 58 2 -32 2 -84 0 -115z m5528 137 c-11 -5 -27 -9 -35 -9 -9 0 -8 4 5 9
11 5 27 9 35 9 9 0 8 -4 -5 -9z m-5278 -46 c-3 -3 -12 -4 -19 -1 -8 3 -5 6 6
6 11 1 17 -2 13 -5z m5118 -4 c-3 -5 -12 -10 -18 -10 -7 0 -6 4 3 10 19 12 23
12 15 0z m-5055 -20 c18 -12 2 -12 -25 0 -13 6 -15 9 -5 9 8 0 22 -4 30 -9z
m227 -76 c-3 -3 -12 -4 -19 -1 -8 3 -5 6 6 6 11 1 17 -2 13 -5z m1603 -49 c13
-14 21 -25 18 -25 -2 0 -15 11 -28 25 -13 14 -21 25 -18 25 2 0 15 -11 28 -25z
m55 -55 c10 -11 16 -20 13 -20 -3 0 -13 9 -23 20 -10 11 -16 20 -13 20 3 0 13
-9 23 -20z m-2198 -137 c-2 -21 -4 -4 -4 37 0 41 2 58 4 38 2 -21 2 -55 0 -75z
m2283 52 c30 -30 52 -55 49 -55 -2 0 -29 25 -59 55 -30 30 -52 55 -49 55 2 0
29 -25 59 -55z m870 -128 c0 -1 -107 -108 -237 -237 l-238 -235 235 238 c218
220 240 242 240 234z m-520 -521 c0 -2 -8 -10 -17 -17 -16 -13 -17 -12 -4 4
13 16 21 21 21 13z m-40 -39 c0 -2 -10 -12 -22 -23 l-23 -19 19 23 c18 21 26
27 26 19z m-370 -133 c0 -2 -9 0 -20 6 -11 6 -20 13 -20 16 0 2 9 0 20 -6 11
-6 20 -13 20 -16z m132 -760 c25 -8 55 -26 68 -39 24 -26 20 -43 -23 -83 -24
-23 -26 -23 -51 -7 -38 25 -164 18 -203 -11 -51 -38 -74 -91 -71 -159 6 -103
73 -165 177 -165 72 0 77 3 73 55 l-4 45 -44 0 -44 0 0 60 0 60 99 0 c134 0
131 4 131 -165 l0 -134 -57 -22 c-85 -34 -219 -33 -288 0 -117 58 -175 146
-175 267 0 99 23 158 85 220 85 86 215 117 327 78z m718 -4 c24 -24 26 -77 3
-102 -13 -15 -31 -18 -100 -18 l-83 0 0 -212 c0 -183 -2 -214 -17 -230 -20
-22 -70 -23 -95 -1 -16 15 -18 35 -18 230 0 163 -3 213 -12 214 -7 0 -44 0
-81 -1 -86 -2 -117 15 -117 65 0 24 7 39 26 54 25 20 39 21 250 21 211 0 225
-1 244 -20z m461 -17 c73 -34 136 -101 160 -170 19 -53 16 -169 -5 -216 -25
-58 -90 -122 -149 -148 -43 -19 -73 -24 -178 -27 l-126 -4 -22 27 c-20 27 -21
37 -21 277 l0 249 26 26 c25 24 28 25 137 21 100 -3 119 -7 178 -35z"/>
<path d="M2463 5593 c15 -2 37 -2 50 0 12 2 0 4 -28 4 -27 0 -38 -2 -22 -4z"/>
<path d="M2548 5593 c7 -3 16 -2 19 1 4 3 -2 6 -13 5 -11 0 -14 -3 -6 -6z"/>
<path d="M3590 5590 c-8 -5 -10 -10 -5 -10 6 0 17 5 25 10 8 5 11 10 5 10 -5
0 -17 -5 -25 -10z"/>
<path d="M2635 5550 c10 -11 20 -20 23 -20 3 0 -3 9 -13 20 -10 11 -20 20 -23
20 -3 0 3 -9 13 -20z"/>
<path d="M3794 5542 l26 -34 0 -238 0 -238 -29 -29 c-31 -32 -89 -53 -143 -53
-51 0 -120 39 -140 80 -18 35 -18 35 -18 7 0 -64 40 -105 124 -126 40 -10 57
-9 100 4 62 18 78 30 100 73 19 37 22 86 18 339 l-2 183 -31 32 -31 33 26 -33z"/>
<path d="M2356 5533 c-6 -14 -5 -15 5 -6 7 7 10 15 7 18 -3 3 -9 -2 -12 -12z"/>
<path d="M2336 5494 c-10 -27 -6 -421 5 -474 15 -72 58 -103 148 -108 54 -3
74 1 111 20 77 39 80 55 78 328 l-2 235 -6 -230 c-6 -258 -7 -262 -77 -295
-85 -40 -184 -18 -231 51 -23 33 -23 38 -20 261 2 126 2 228 2 228 -1 0 -5 -7
-8 -16z"/>
<path d="M3483 5435 c0 -27 2 -38 4 -22 2 15 2 37 0 50 -2 12 -4 0 -4 -28z"/>
<path d="M3484 5185 c0 -66 1 -92 3 -57 2 34 2 88 0 120 -2 31 -3 3 -3 -63z"/>
<path d="M2398 4813 c18 -2 45 -2 60 0 15 2 0 4 -33 4 -33 0 -45 -2 -27 -4z"/>
<path d="M2581 4816 c9 -8 329 -13 323 -5 -3 5 -78 9 -166 9 -89 0 -159 -2
-157 -4z"/>
<path d="M2975 4810 c-20 -5 5 -8 70 -8 81 0 91 2 55 9 -54 9 -85 9 -125 -1z"/>
<path d="M1858 4803 c12 -2 30 -2 40 0 9 3 -1 5 -23 4 -22 0 -30 -2 -17 -4z"/>
<path d="M3848 4803 c6 -2 18 -2 25 0 6 3 1 5 -13 5 -14 0 -19 -2 -12 -5z"/>
<path d="M1753 4775 c-79 -40 -140 -117 -158 -200 -3 -16 4 -5 18 26 43 102
84 144 175 180 26 10 40 18 31 19 -8 0 -38 -11 -66 -25z"/>
<path d="M4746 4417 c3 -10 9 -15 12 -12 3 3 0 11 -7 18 -10 9 -11 8 -5 -6z"/>
<path d="M1960 4410 c0 -6 27 -10 60 -10 33 0 60 4 60 10 0 6 -27 10 -60 10
-33 0 -60 -4 -60 -10z"/>
<path d="M2120 4412 c0 -12 211 -22 394 -20 l151 2 -190 6 c-121 4 -53 6 185
4 206 -1 384 -4 395 -5 63 -8 665 2 665 11 0 7 -273 10 -800 10 -440 0 -800
-4 -800 -8z"/>
<path d="M3808 4413 c7 -3 16 -2 19 1 4 3 -2 6 -13 5 -11 0 -14 -3 -6 -6z"/>
<path d="M4830 4241 c0 -14 18 -23 31 -15 8 4 7 9 -2 15 -18 11 -29 11 -29 0z"/>
<path d="M3995 4140 c4 -6 11 -8 16 -5 14 9 11 15 -7 15 -8 0 -12 -5 -9 -10z"/>
<path d="M4054 4118 l-29 -33 33 29 c17 17 32 31 32 33 0 8 -8 1 -36 -29z"/>
<path d="M1480 3860 c0 -5 9 -10 20 -10 11 0 20 5 20 10 0 6 -9 10 -20 10 -11
0 -20 -4 -20 -10z"/>
<path d="M3600 885 l0 -165 60 0 c104 0 161 38 179 121 13 56 1 106 -36 150
-35 41 -79 59 -148 59 l-55 0 0 -165z"/>
</g>
</svg>
